<svg xmlns="http://www.w3.org/2000/svg" width="412.82" height="182" viewBox="0 0 412.82 182"><g transform="translate(2987.71 1350)"><g transform="translate(416 -235)"><path d="M115.964,115.334H91.076v98.871h24.888Z" transform="translate(-3381 -1171)" fill="#9fd4f6"/><path d="M111.9,108.263H95.142v41.565H111.9Z" transform="translate(-3381 -1171)" fill="#9fd4f6"/><path d="M108.141,103.775h-9.3v23.057h9.3Z" transform="translate(-3381 -1171)" fill="#9fd4f6"/><path d="M106.662,115.58h-6.345V99.9h6.345Z" transform="translate(-3381 -1171)" fill="#9fd4f6"/><path d="M103.089,108.755h-.678V93.076h.678Z" transform="translate(-3381 -1171)" fill="#9fd4f6"/><path d="M104.629,103.345h-.678V87.6h.678Z" transform="translate(-3381 -1171)" fill="#9fd4f6"/><path d="M116.642,115.089H90.4v1.045h26.244Z" transform="translate(-3381 -1171)" fill="#9fd4f6"/><path d="M112.515,107.71H94.526v.984h17.989Z" transform="translate(-3381 -1171)" fill="#9fd4f6"/><path d="M108.51,103.344H98.16v.8h10.35Z" transform="translate(-3381 -1171)" fill="#9fd4f6"/><path d="M97.483,109.924h-.8v4.365h.8Z" transform="translate(-3381 -1171)" fill="#9fd4f6" opacity="0.29"/><path d="M99.639,109.924h-.8v4.365h.8Z" transform="translate(-3381 -1171)" fill="#9fd4f6" opacity="0.29"/><path d="M101.795,109.924h-.8v4.365h.8Z" transform="translate(-3381 -1171)" fill="#9fd4f6" opacity="0.29"/><path d="M103.951,109.924h-.8v4.365h.8Z" transform="translate(-3381 -1171)" fill="#9fd4f6" opacity="0.29"/><path d="M106.108,109.924h-.8v4.365h.8Z" transform="translate(-3381 -1171)" fill="#9fd4f6" opacity="0.29"/><path d="M108.264,109.924h-.8v4.365h.8Z" transform="translate(-3381 -1171)" fill="#9fd4f6" opacity="0.29"/><path d="M110.42,109.924h-.8v4.365h.8Z" transform="translate(-3381 -1171)" fill="#9fd4f6" opacity="0.29"/><path d="M95.142,119.27h-1.91v5.164h1.91Z" transform="translate(-3381 -1171)" fill="#9fd4f6"/><path d="M98.9,119.27H96.99v5.164H98.9Z" transform="translate(-3381 -1171)" fill="#9fd4f6" opacity="0.29"/><path d="M102.6,119.27h-1.91v5.164h1.91Z" transform="translate(-3381 -1171)" fill="#9fd4f6"/><path d="M106.354,119.27h-1.91v5.164h1.91Z" transform="translate(-3381 -1171)" fill="#9fd4f6"/><path d="M110.05,119.27h-1.909v5.164h1.909Z" transform="translate(-3381 -1171)" fill="#9fd4f6"/><path d="M113.808,119.27H111.9v5.164h1.909Z" transform="translate(-3381 -1171)" fill="#9fd4f6"/><path d="M95.142,127.324h-1.91v5.165h1.91Z" transform="translate(-3381 -1171)" fill="#9fd4f6"/><path d="M98.9,127.324H96.99v5.165H98.9Z" transform="translate(-3381 -1171)" fill="#9fd4f6"/><path d="M102.6,127.324h-1.91v5.165h1.91Z" transform="translate(-3381 -1171)" fill="#9fd4f6"/><path d="M106.354,127.324h-1.91v5.165h1.91Z" transform="translate(-3381 -1171)" fill="#9fd4f6" opacity="0.29"/><path d="M110.05,127.324h-1.909v5.165h1.909Z" transform="translate(-3381 -1171)" fill="#9fd4f6"/><path d="M113.808,127.324H111.9v5.165h1.909Z" transform="translate(-3381 -1171)" fill="#9fd4f6"/><path d="M95.142,135.379h-1.91v5.165h1.91Z" transform="translate(-3381 -1171)" fill="#9fd4f6"/><path d="M98.9,135.379H96.99v5.165H98.9Z" transform="translate(-3381 -1171)" fill="#9fd4f6"/><path d="M102.6,135.379h-1.91v5.165h1.91Z" transform="translate(-3381 -1171)" fill="#9fd4f6"/><path d="M106.354,135.379h-1.91v5.165h1.91Z" transform="translate(-3381 -1171)" fill="#9fd4f6"/><path d="M110.05,135.379h-1.909v5.165h1.909Z" transform="translate(-3381 -1171)" fill="#9fd4f6" opacity="0.29"/><path d="M113.808,135.379H111.9v5.165h1.909Z" transform="translate(-3381 -1171)" fill="#9fd4f6" opacity="0.29"/><path d="M95.142,143.434h-1.91V148.6h1.91Z" transform="translate(-3381 -1171)" fill="#9fd4f6" opacity="0.29"/><path d="M98.9,143.434H96.99V148.6H98.9Z" transform="translate(-3381 -1171)" fill="#9fd4f6"/><path d="M102.6,143.434h-1.91V148.6h1.91Z" transform="translate(-3381 -1171)" fill="#9fd4f6"/><path d="M106.354,143.434h-1.91V148.6h1.91Z" transform="translate(-3381 -1171)" fill="#9fd4f6"/><path d="M110.05,143.434h-1.909V148.6h1.909Z" transform="translate(-3381 -1171)" fill="#9fd4f6"/><path d="M113.808,143.434H111.9V148.6h1.909Z" transform="translate(-3381 -1171)" fill="#9fd4f6"/><path d="M95.142,151.489h-1.91v5.164h1.91Z" transform="translate(-3381 -1171)" fill="#9fd4f6"/><path d="M98.9,151.489H96.99v5.164H98.9Z" transform="translate(-3381 -1171)" fill="#9fd4f6" opacity="0.29"/><path d="M102.6,151.489h-1.91v5.164h1.91Z" transform="translate(-3381 -1171)" fill="#9fd4f6"/><path d="M106.354,151.489h-1.91v5.164h1.91Z" transform="translate(-3381 -1171)" fill="#9fd4f6" opacity="0.29"/><path d="M110.05,151.489h-1.909v5.164h1.909Z" transform="translate(-3381 -1171)" fill="#9fd4f6"/><path d="M113.808,151.489H111.9v5.164h1.909Z" transform="translate(-3381 -1171)" fill="#9fd4f6"/><path d="M95.142,159.543h-1.91v5.165h1.91Z" transform="translate(-3381 -1171)" fill="#9fd4f6"/><path d="M98.9,159.543H96.99v5.165H98.9Z" transform="translate(-3381 -1171)" fill="#9fd4f6"/><path d="M102.6,159.543h-1.91v5.165h1.91Z" transform="translate(-3381 -1171)" fill="#9fd4f6"/><path d="M106.354,159.543h-1.91v5.165h1.91Z" transform="translate(-3381 -1171)" fill="#9fd4f6"/><path d="M110.05,159.543h-1.909v5.165h1.909Z" transform="translate(-3381 -1171)" fill="#9fd4f6"/><path d="M113.808,159.543H111.9v5.165h1.909Z" transform="translate(-3381 -1171)" fill="#9fd4f6" opacity="0.29"/><path d="M95.142,167.6h-1.91v5.165h1.91Z" transform="translate(-3381 -1171)" fill="#9fd4f6"/><path d="M98.9,167.6H96.99v5.165H98.9Z" transform="translate(-3381 -1171)" fill="#9fd4f6" opacity="0.29"/><path d="M102.6,167.6h-1.91v5.165h1.91Z" transform="translate(-3381 -1171)" fill="#9fd4f6" opacity="0.29"/><path d="M106.354,167.6h-1.91v5.165h1.91Z" transform="translate(-3381 -1171)" fill="#9fd4f6"/><path d="M110.05,167.6h-1.909v5.165h1.909Z" transform="translate(-3381 -1171)" fill="#9fd4f6"/><path d="M113.808,167.6H111.9v5.165h1.909Z" transform="translate(-3381 -1171)" fill="#9fd4f6"/><path d="M95.142,175.653h-1.91v5.165h1.91Z" transform="translate(-3381 -1171)" fill="#9fd4f6"/><path d="M98.9,175.653H96.99v5.165H98.9Z" transform="translate(-3381 -1171)" fill="#9fd4f6"/><path d="M102.6,175.653h-1.91v5.165h1.91Z" transform="translate(-3381 -1171)" fill="#9fd4f6"/><path d="M106.354,175.653h-1.91v5.165h1.91Z" transform="translate(-3381 -1171)" fill="#9fd4f6"/><path d="M110.05,175.653h-1.909v5.165h1.909Z" transform="translate(-3381 -1171)" fill="#9fd4f6" opacity="0.29"/><path d="M113.808,175.653H111.9v5.165h1.909Z" transform="translate(-3381 -1171)" fill="#9fd4f6"/><path d="M95.142,183.707h-1.91v5.165h1.91Z" transform="translate(-3381 -1171)" fill="#9fd4f6"/><path d="M98.9,183.707H96.99v5.165H98.9Z" transform="translate(-3381 -1171)" fill="#9fd4f6" opacity="0.29"/><path d="M102.6,183.707h-1.91v5.165h1.91Z" transform="translate(-3381 -1171)" fill="#9fd4f6"/><path d="M106.354,183.707h-1.91v5.165h1.91Z" transform="translate(-3381 -1171)" fill="#9fd4f6"/><path d="M110.05,183.707h-1.909v5.165h1.909Z" transform="translate(-3381 -1171)" fill="#9fd4f6"/><path d="M113.808,183.707H111.9v5.165h1.909Z" transform="translate(-3381 -1171)" fill="#9fd4f6"/><path d="M95.142,191.762h-1.91v5.165h1.91Z" transform="translate(-3381 -1171)" fill="#9fd4f6"/><path d="M98.9,191.762H96.99v5.165H98.9Z" transform="translate(-3381 -1171)" fill="#9fd4f6"/><path d="M102.6,191.762h-1.91v5.165h1.91Z" transform="translate(-3381 -1171)" fill="#9fd4f6"/><path d="M106.354,191.762h-1.91v5.165h1.91Z" transform="translate(-3381 -1171)" fill="#9fd4f6" opacity="0.29"/><path d="M110.05,191.762h-1.909v5.165h1.909Z" transform="translate(-3381 -1171)" fill="#9fd4f6"/><path d="M113.808,191.762H111.9v5.165h1.909Z" transform="translate(-3381 -1171)" fill="#9fd4f6" opacity="0.29"/><path d="M95.142,199.817h-1.91v5.165h1.91Z" transform="translate(-3381 -1171)" fill="#9fd4f6" opacity="0.29"/><path d="M98.9,199.817H96.99v5.165H98.9Z" transform="translate(-3381 -1171)" fill="#9fd4f6"/><path d="M102.6,199.817h-1.91v5.165h1.91Z" transform="translate(-3381 -1171)" fill="#9fd4f6" opacity="0.29"/><path d="M106.354,199.817h-1.91v5.165h1.91Z" transform="translate(-3381 -1171)" fill="#9fd4f6"/><path d="M110.05,199.817h-1.909v5.165h1.909Z" transform="translate(-3381 -1171)" fill="#9fd4f6"/><path d="M113.808,199.817H111.9v5.165h1.909Z" transform="translate(-3381 -1171)" fill="#9fd4f6"/><path d="M58.794,119.085H18.812V202.4H58.794Z" transform="translate(-3381 -1171)" fill="#9fd4f6"/><path d="M59.9,117.671H17.642v2.336H59.9Z" transform="translate(-3381 -1171)" fill="#9fd4f6"/><path d="M57.439,114.658H20.106v11.191H57.439Z" transform="translate(-3381 -1171)" fill="#9fd4f6"/><path d="M37.787,110.047H23v12.235H37.787Z" transform="translate(-3381 -1171)" fill="#9fd4f6"/><path d="M31.565,113.49H23V107.1h6.1Z" transform="translate(-3381 -1171)" fill="#9fd4f6"/><path d="M27.252,101.746h-.8v14.326h.8Z" transform="translate(-3381 -1171)" fill="#9fd4f6"/><path d="M27.622,101.008a.739.739,0,1,1-.739-.738A.749.749,0,0,1,27.622,101.008Z" transform="translate(-3381 -1171)" fill="#9fd4f6"/><path d="M390.11,208.732h-43.8L340.825,86.251,390.11,96.458Z" transform="translate(-3381 -1171)" fill="#9fd4f6"/><path d="M199.009,138.761V97.872h-6.838V86.866h-2.464V70.818H176.215V58.951h-1.232V70.818h-2.649V56h-1.171V70.818H162.6V97.872h-4.436v40.889h-3.758v74.583H201.72V138.761Z" transform="translate(-3381 -1171)" fill="#9fd4f6"/><path d="M375.694,207.2H-37.126v12.421h412.82Z" transform="translate(-3366.584 -1171)" fill="#b5c3c2"/><path d="M356.9,218.386H-55.915V238H356.9Z" transform="translate(-3347.795 -1171)" fill="#0491de"/><path d="M251.867,130.891V110.354h-7.393v-7.809h-4V96.028h-1.417V84.776h-.37V96.028h-1.355v6.517h-4.005v7.809h-7.392v20.537H224.39v37.26h-11.4v42.487h40.352V130.891Z" transform="translate(-3381 -1171)" fill="#0491de"/><path d="M294.621,154.44H258.643v.676h1.6v60.749h32.774V155.116h1.6Z" transform="translate(-3381 -1171)" fill="#0491de"/><path d="M130.442,169.627H98.53v50.6h31.912Z" transform="translate(-3381 -1171)" fill="#0491de"/><path d="M93.663,195.513H38.773V220.23H93.663Z" transform="translate(-3381 -1171)" fill="#0491de"/><path d="M80.295,140.359H68.22v60.626H80.295Z" transform="translate(-3381 -1171)" fill="#0491de"/><path d="M71.485,124.188h-.616v32.957h.616Z" transform="translate(-3381 -1171)" fill="#0491de"/><path d="M73.518,126.709H72.9v32.957h.616Z" transform="translate(-3381 -1171)" fill="#0491de"/><path d="M76.537,136.609H69.144v8.116h7.393Z" transform="translate(-3381 -1171)" fill="#0491de"/><path d="M112.576,178.666H91.569V220.23h21.007Z" transform="translate(-3381 -1171)" fill="#0491de"/><path d="M174.983,134.7H135.617V220.23h39.366Z" transform="translate(-3381 -1171)" fill="#0491de"/><path d="M171.163,131.751H139.5v14.265h31.665Z" transform="translate(-3381 -1171)" fill="#0491de"/><path d="M178,136.486H132.536v.983H178Z" transform="translate(-3381 -1171)" fill="#0491de"/><path d="M147.014,177.005H128.47V220.23h18.544Z" transform="translate(-3381 -1171)" fill="#0491de"/><path d="M16.9,175.407H-4.413V220.23H16.9Z" transform="translate(-3381 -1171)" fill="#0491de"/><path d="M44.933,163.171H2.487V220.23H44.933Z" transform="translate(-3381 -1171)" fill="#0491de"/><path d="M46.042,161.019H.023v2.213H46.042Z" transform="translate(-3381 -1171)" fill="#0491de"/><path d="M23,155.055H4.335v11.559H23Z" transform="translate(-3381 -1171)" fill="#0491de"/><path d="M32.242,155.055H29.1v7.009h3.142Z" transform="translate(-3381 -1171)" fill="#0491de"/><path d="M38.772,155.055h-3.45v7.009h3.45Z" transform="translate(-3381 -1171)" fill="#0491de"/><path d="M6.245,202.891h-22.24V220.23H6.245Z" transform="translate(-3381 -1171)" fill="#0491de"/><path d="M390.11,200.985H171.1V220.23H390.11Z" transform="translate(-3381 -1171)" fill="#0491de"/><path d="M375.078,147.8a2.632,2.632,0,0,0-2.649,2.46l-3.142-.123v-.922a32.687,32.687,0,0,0-1.971-11.191l2.587-.984a2.731,2.731,0,0,0,2.464,1.6,2.644,2.644,0,1,0-2.649-2.644,3.568,3.568,0,0,0,.124.8l-2.588.984a32.536,32.536,0,0,0-6.715-10.822l2.033-1.906a2.776,2.776,0,0,0,1.848.738,2.644,2.644,0,1,0-2.649-2.644,2.8,2.8,0,0,0,.616,1.722l-2.033,1.906c-.185-.246-.431-.43-.616-.676a32,32,0,0,0-10.6-7.071l1.109-2.706a3.575,3.575,0,0,0,.8.123A2.644,2.644,0,1,0,348.4,113.8a2.726,2.726,0,0,0,1.6,2.46l-1.108,2.7a32.557,32.557,0,0,0-11.151-2.336l.123-3.751h.062a2.644,2.644,0,1,0-2.649-2.644,2.656,2.656,0,0,0,2.279,2.644l-.123,3.751h-.924a33.6,33.6,0,0,0-10.781,1.783l-1.047-3.013a2.662,2.662,0,1,0-.986.184,3.07,3.07,0,0,0,.739-.123l1.047,3.013a32.408,32.408,0,0,0-11.273,6.887l-1.972-2.091a2.678,2.678,0,0,0,.678-1.783,2.649,2.649,0,1,0-2.649,2.644,2.425,2.425,0,0,0,1.725-.676l1.971,2.09c-.246.185-.431.431-.678.615a33.009,33.009,0,0,0-6.53,9.285l-2.464-1.169a3.6,3.6,0,0,0,.123-.861,2.649,2.649,0,1,0-2.649,2.644,2.653,2.653,0,0,0,2.4-1.537l2.464,1.107a31.623,31.623,0,0,0-2.895,12.42l-3.2-.123a2.7,2.7,0,0,0-2.649-2.582,2.644,2.644,0,1,0,2.649,2.828l3.2.123v.923a32.662,32.662,0,0,0,1.971,11.19l-2.587.984a2.733,2.733,0,0,0-2.465-1.6,2.644,2.644,0,1,0,2.649,2.644,3.566,3.566,0,0,0-.123-.8l2.588-.984a32.536,32.536,0,0,0,6.715,10.822l-2.033,1.906a2.777,2.777,0,0,0-1.849-.738,2.644,2.644,0,1,0,2.649,2.644,2.791,2.791,0,0,0-.616-1.722l2.033-1.906c.185.246.432.43.616.676a33.679,33.679,0,0,0,6.9,5.288L304.108,207.2h-2.895v.861H299.8v1.66h73.372v-1.66h-1.417V207.2h-2.9l-16.018-29.513a31.981,31.981,0,0,0,5.976-4.427l2.588,2.767a2.737,2.737,0,0,0-.925,2.029,2.65,2.65,0,1,0,2.65-2.644,2.7,2.7,0,0,0-1.541.492l-2.649-2.767c.247-.185.432-.431.678-.615a33.008,33.008,0,0,0,6.53-9.285l2.9,1.353a2.29,2.29,0,0,0-.062.676,2.707,2.707,0,1,0,.185-.922l-2.834-1.291a31.624,31.624,0,0,0,2.9-12.42l3.142.123a2.7,2.7,0,0,0,2.649,2.582,2.771,2.771,0,0,0,.062-5.534Zm-6.592,1.415v.86l-9.179-.307v-.615a22.669,22.669,0,0,0-1.355-7.686l8.624-3.2A32.972,32.972,0,0,1,368.486,149.214Zm-9.672.614-20.515-.676a.786.786,0,0,0-.061-.369l19.221-7.071a21.934,21.934,0,0,1,1.293,7.563A1.353,1.353,0,0,1,358.814,149.828Zm-44.6-1.168,20.514.676a.775.775,0,0,0,.062.369l-19.221,7.071a21.906,21.906,0,0,1-1.294-7.562A1.719,1.719,0,0,1,314.212,148.66Zm23.718-.553,14.97-14.019a22.1,22.1,0,0,1,4.5,7.255l-19.221,7.071A1.327,1.327,0,0,1,337.93,148.107Zm-.185-.185a1.287,1.287,0,0,0-.37-.246l7.763-18.937a23.183,23.183,0,0,1,7.577,5.226Zm-.678-.43a.665.665,0,0,0-.308-.062l.678-20.475a23.059,23.059,0,0,1,7.454,1.6Zm-.616-.062a.774.774,0,0,0-.369.062l-6.839-19.307a22.017,22.017,0,0,1,7.27-1.23h.554Zm-.677.185a1.267,1.267,0,0,0-.37.246L321.419,132.92A22.22,22.22,0,0,1,329,128.308Zm-.555.43c-.061.123-.185.185-.246.308l-18.6-8.608a21.623,21.623,0,0,1,4.8-6.641Zm-.37.554a4.172,4.172,0,0,0-.123.43l-20.514-.676a21.883,21.883,0,0,1,1.971-8.3Zm.062,1.352c.062.123.123.185.185.308l-.123.246-14.786,13.834a21.132,21.132,0,0,1-4.5-7.255Zm-.431,1.353-9.3,17.093a21.066,21.066,0,0,1-4.866-3.873Zm1.047-.615c.062.062.123.062.185.123l-7.824,18.938a23.113,23.113,0,0,1-2.156-1.045Zm.431.246a.669.669,0,0,0,.308.062l-.677,20.475a23.065,23.065,0,0,1-7.455-1.6Zm.555,20.537h-.555L336.636,151a.781.781,0,0,0,.37-.062l6.838,19.307A22.653,22.653,0,0,1,336.513,171.472Zm.739-20.6c.123-.062.185-.123.308-.185l9.8,18.016a26.253,26.253,0,0,1-3.265,1.475Zm1.663,1.106,12.753,13.589a21.121,21.121,0,0,1-3.82,2.828Zm-.554-1.045-.37-.676c.062-.062.062-.123.124-.185l18.6,8.608a21.607,21.607,0,0,1-4.8,6.641Zm-.185-1.107a3.725,3.725,0,0,0,.123-.43l20.515.676a21.9,21.9,0,0,1-1.971,8.3ZM327.765,170.18l-3.512,8.486q-1.57-.646-3.142-1.476l4.374-8.055C326.225,169.5,326.964,169.873,327.765,170.18Zm.246.123a20.916,20.916,0,0,0,7.639,1.6l-.308,9.161a32.523,32.523,0,0,1-10.842-2.274Zm7.947,1.6h.616a22.444,22.444,0,0,0,7.393-1.23l3.08,8.67a31.445,31.445,0,0,1-10.473,1.721h-.862Zm8.256-1.291a27.216,27.216,0,0,0,3.326-1.476l4.374,8.055a31.191,31.191,0,0,1-4.62,2.09Zm22.239-32.527-8.625,3.2a23.253,23.253,0,0,0-4.62-7.44l6.715-6.272A30.769,30.769,0,0,1,366.453,138.084Zm-7.331-11.375.616.615-6.715,6.272a23.113,23.113,0,0,0-7.7-5.349l3.512-8.486A32.714,32.714,0,0,1,359.122,126.709Zm-10.6-7.07-3.512,8.485a20.913,20.913,0,0,0-7.639-1.6l.308-9.161A32.185,32.185,0,0,1,348.526,119.639Zm-12.013-2.275h.862l-.308,9.161h-.616a22.443,22.443,0,0,0-7.392,1.23l-3.081-8.67A33.76,33.76,0,0,1,336.513,117.364Zm-10.781,1.844,3.08,8.67a23.174,23.174,0,0,0-7.762,4.673l-6.284-6.7A32.564,32.564,0,0,1,325.732,119.208Zm-11.767,7.5.616-.614,6.284,6.7a22.784,22.784,0,0,0-4.928,6.825l-8.379-3.874A30.662,30.662,0,0,1,313.965,126.709Zm-6.53,9.285,8.378,3.874a22.91,22.91,0,0,0-2.033,8.485l-9.179-.308A32,32,0,0,1,307.435,135.994Zm-2.834,13.22v-.861l9.179.307v.615a22.645,22.645,0,0,0,1.356,7.686l-8.625,3.2A31.239,31.239,0,0,1,304.6,149.214Zm1.971,11.19,8.625-3.2a23.256,23.256,0,0,0,4.621,7.44l-6.715,6.271A31.714,31.714,0,0,1,306.572,160.4Zm7.393,11.375-.616-.615,6.715-6.271a22.039,22.039,0,0,0,4.99,3.935l-4.374,8.116A32.541,32.541,0,0,1,313.965,171.779ZM368.24,207.2H304.786l15.894-29.267a30.789,30.789,0,0,0,3.2,1.537l-1.109,2.705a3.65,3.65,0,0,0-.8-.123,2.644,2.644,0,1,0,2.649,2.644,2.724,2.724,0,0,0-1.6-2.459l1.109-2.706a32.535,32.535,0,0,0,11.151,2.337l-.062,2.767a2.7,2.7,0,0,0-2.587,2.644,2.649,2.649,0,1,0,2.9-2.644l.062-2.767h.924a33.6,33.6,0,0,0,10.781-1.783l.986,2.705a2.643,2.643,0,1,0,1.108-.246,3.66,3.66,0,0,0-.862.123l-.924-2.705a30.2,30.2,0,0,0,4.744-2.152Zm-15.833-30.313-4.374-8.116a22.334,22.334,0,0,0,3.943-2.89l6.284,6.7A30.462,30.462,0,0,1,352.407,176.882Zm6.715-5.1-.616.615-6.284-6.7a22.8,22.8,0,0,0,4.929-6.825l8.378,3.874A34.042,34.042,0,0,1,359.122,171.779Zm6.469-9.346-8.379-3.874a22.871,22.871,0,0,0,2.033-8.485l9.18.308A30.886,30.886,0,0,1,365.591,162.433Z" transform="translate(-3381 -1171)" fill="#0491de"/><path d="M297.208,185.183H277.987v25.456h19.221Z" transform="translate(-3381 -1171)" fill="#0491de"/><path d="M306.942,144.6H277.926V238h29.016Z" transform="translate(-3381 -1171)" fill="#003580"/><path d="M309.1,145.155h-33.39v.923H309.1Z" transform="translate(-3381 -1171)" fill="#003580"/><path d="M308.174,158.252H276.632v.922h31.542Z" transform="translate(-3381 -1171)" fill="#003580"/><path d="M308.174,170.98H276.632v.922h31.542Z" transform="translate(-3381 -1171)" fill="#003580"/><path d="M308.174,183.646H276.632v.922h31.542Z" transform="translate(-3381 -1171)" fill="#003580"/><path d="M308.174,196.374H276.632v.922h31.542Z" transform="translate(-3381 -1171)" fill="#003580"/><path d="M308.174,209.1H276.632v.923h31.542Z" transform="translate(-3381 -1171)" fill="#003580"/><path d="M308.174,221.768H276.632v.922h31.542Z" transform="translate(-3381 -1171)" fill="#003580"/><path d="M310.207,142.573H274.661v2.582h35.546Z" transform="translate(-3381 -1171)" fill="#003580"/><path d="M283.532,149.152h-3.019v7.44h3.019Z" transform="translate(-3381 -1171)" fill="#003580" opacity="0.29"/><path d="M290.309,149.152H287.29v7.44h3.019Z" transform="translate(-3381 -1171)" fill="#003580"/><path d="M297.024,149.152h-3.019v7.44h3.019Z" transform="translate(-3381 -1171)" fill="#9fd4f6"/><path d="M303.8,149.152h-3.019v7.44H303.8Z" transform="translate(-3381 -1171)" fill="#003580"/><path d="M283.532,161.326h-3.019v7.44h3.019Z" transform="translate(-3381 -1171)" fill="#003580"/><path d="M290.309,161.326H287.29v7.44h3.019Z" transform="translate(-3381 -1171)" fill="#e4e4e4" opacity="0.29"/><path d="M297.024,161.326h-3.019v7.44h3.019Z" transform="translate(-3381 -1171)" fill="#003580"/><path d="M303.8,161.326h-3.019v7.44H303.8Z" transform="translate(-3381 -1171)" fill="#003580"/><path d="M283.532,174.054h-3.019v7.44h3.019Z" transform="translate(-3381 -1171)" fill="#003580"/><path d="M290.309,174.054H287.29v7.44h3.019Z" transform="translate(-3381 -1171)" fill="#003580"/><path d="M297.024,174.054h-3.019v7.44h3.019Z" transform="translate(-3381 -1171)" fill="#003580"/><path d="M303.8,174.054h-3.019v7.44H303.8Z" transform="translate(-3381 -1171)" fill="#9fd4f6" opacity="0.29"/><path d="M283.532,186.782h-3.019v7.44h3.019Z" transform="translate(-3381 -1171)" fill="#003580"/><path d="M290.309,186.782H287.29v7.44h3.019Z" transform="translate(-3381 -1171)" fill="#9fd4f6" opacity="0.29"/><path d="M297.024,186.782h-3.019v7.44h3.019Z" transform="translate(-3381 -1171)" fill="#003580" opacity="0.29"/><path d="M303.8,186.782h-3.019v7.44H303.8Z" transform="translate(-3381 -1171)" fill="#003580"/><path d="M283.532,199.448h-3.019v7.44h3.019Z" transform="translate(-3381 -1171)" fill="#003580" opacity="0.29"/><path d="M290.309,199.448H287.29v7.44h3.019Z" transform="translate(-3381 -1171)" fill="#003580"/><path d="M297.024,199.448h-3.019v7.44h3.019Z" transform="translate(-3381 -1171)" fill="#003580"/><path d="M303.8,199.448h-3.019v7.44H303.8Z" transform="translate(-3381 -1171)" fill="#003580"/><path d="M283.532,212.176h-3.019v7.44h3.019Z" transform="translate(-3381 -1171)" fill="#9fd4f6"/><path d="M290.309,212.176H287.29v7.44h3.019Z" transform="translate(-3381 -1171)" fill="#003580"/><path d="M297.024,212.176h-3.019v7.44h3.019Z" transform="translate(-3381 -1171)" fill="#e4e4e4" opacity="0.29"/><path d="M303.8,212.176h-3.019v7.44H303.8Z" transform="translate(-3381 -1171)" fill="#003580"/><path d="M283.532,224.9h-3.019v7.44h3.019Z" transform="translate(-3381 -1171)" fill="#003580"/><path d="M290.309,224.9H287.29v7.44h3.019Z" transform="translate(-3381 -1171)" fill="#003580" opacity="0.29"/><path d="M297.024,224.9h-3.019v7.44h3.019Z" transform="translate(-3381 -1171)" fill="#003580"/><path d="M303.8,224.9h-3.019v7.44H303.8Z" transform="translate(-3381 -1171)" fill="#003580" opacity="0.29"/><path d="M289.569,139.007h-9.857v4.857h9.857Z" transform="translate(-3381 -1171)" fill="#003580"/><path d="M290.309,138.884H279.1v.8h11.213Z" transform="translate(-3381 -1171)" fill="#003580"/><path d="M236.28,238H197.654V149.275l38.626-9.469Z" transform="translate(-3381 -1171)" fill="#003580"/><path d="M199.317,147.676h-3.388v90.263h3.388Z" transform="translate(-3381 -1171)" fill="#003580"/><path d="M208.989,145.155H205.6V238h3.388Z" transform="translate(-3381 -1171)" fill="#003580"/><path d="M218.661,142.511h-3.388V238h3.388Z" transform="translate(-3381 -1171)" fill="#003580"/><path d="M228.333,140.359h-3.388V238h3.388Z" transform="translate(-3381 -1171)" fill="#003580"/><path d="M238.005,138.084h-3.388V238h3.388Z" transform="translate(-3381 -1171)" fill="#003580"/><path d="M204.738,155.239h-4.5v6.887h4.5Z" transform="translate(-3381 -1171)" fill="#003580" opacity="0.29"/><path d="M214.349,155.239h-4.5v6.887h4.5Z" transform="translate(-3381 -1171)" fill="#003580" opacity="0.29"/><path d="M224.021,155.239h-4.5v6.887h4.5Z" transform="translate(-3381 -1171)" fill="#003580"/><path d="M233.693,155.239h-4.5v6.887h4.5Z" transform="translate(-3381 -1171)" fill="#003580" opacity="0.29"/><path d="M204.738,167.229h-4.5v6.887h4.5Z" transform="translate(-3381 -1171)" fill="#9fd4f6"/><path d="M214.349,167.229h-4.5v6.887h4.5Z" transform="translate(-3381 -1171)" fill="#003580"/><path d="M224.021,167.229h-4.5v6.887h4.5Z" transform="translate(-3381 -1171)" fill="#003580" opacity="0.29"/><path d="M233.693,167.229h-4.5v6.887h4.5Z" transform="translate(-3381 -1171)" fill="#e4e4e4" opacity="0.29"/><path d="M204.738,179.157h-4.5v6.887h4.5Z" transform="translate(-3381 -1171)" fill="#003580" opacity="0.29"/><path d="M214.349,179.157h-4.5v6.887h4.5Z" transform="translate(-3381 -1171)" fill="#9fd4f6" opacity="0.29"/><path d="M224.021,179.157h-4.5v6.887h4.5Z" transform="translate(-3381 -1171)" fill="#003580" opacity="0.29"/><path d="M233.693,179.157h-4.5v6.887h4.5Z" transform="translate(-3381 -1171)" fill="#003580"/><path d="M204.738,191.086h-4.5v6.886h4.5Z" transform="translate(-3381 -1171)" fill="#003580" opacity="0.29"/><path d="M214.349,191.086h-4.5v6.886h4.5Z" transform="translate(-3381 -1171)" fill="#003580"/><path d="M224.021,191.086h-4.5v6.886h4.5Z" transform="translate(-3381 -1171)" fill="#003580" opacity="0.29"/><path d="M233.693,191.086h-4.5v6.886h4.5Z" transform="translate(-3381 -1171)" fill="#9fd4f6" opacity="0.29"/><path d="M204.738,203.014h-4.5V209.9h4.5Z" transform="translate(-3381 -1171)" fill="#e4e4e4" opacity="0.29"/><path d="M214.349,203.014h-4.5V209.9h4.5Z" transform="translate(-3381 -1171)" fill="#003580" opacity="0.29"/><path d="M224.021,203.014h-4.5V209.9h4.5Z" transform="translate(-3381 -1171)" fill="#9fd4f6"/><path d="M233.693,203.014h-4.5V209.9h4.5Z" transform="translate(-3381 -1171)" fill="#003580" opacity="0.29"/><path d="M204.738,214.943h-4.5v6.886h4.5Z" transform="translate(-3381 -1171)" fill="#003580"/><path d="M214.349,214.943h-4.5v6.886h4.5Z" transform="translate(-3381 -1171)" fill="#003580"/><path d="M224.021,214.943h-4.5v6.886h4.5Z" transform="translate(-3381 -1171)" fill="#003580" opacity="0.29"/><path d="M233.693,214.943h-4.5v6.886h4.5Z" transform="translate(-3381 -1171)" fill="#003580" opacity="0.29"/><path d="M87.318,153.518v.922h-.924v2.582h16.2V238H76.044V154.44h-.986v-.922Z" transform="translate(-3381 -1171)" fill="#003580"/><path d="M155.269,190.286H132.536V238h22.733Z" transform="translate(-3381 -1171)" fill="#003580"/><path d="M51.895,179.342H33.413V238H51.895Z" transform="translate(-3381 -1171)" fill="#003580"/><path d="M68.4,191.516H48.26v46.423H68.4Z" transform="translate(-3381 -1171)" fill="#003580"/><path d="M48.26,176.944H40.066v7.009H48.26Z" transform="translate(-3381 -1171)" fill="#003580"/><path d="M71.116,190.778h-21.5V192.5h21.5Z" transform="translate(-3381 -1171)" fill="#003580"/><path d="M88.858,211.438H66.249v26.5H88.858Z" transform="translate(-3381 -1171)" fill="#003580"/><path d="M11.6,189.918H-6.754V238H11.6Z" transform="translate(-3381 -1171)" fill="#003580"/><path d="M1.44,213.836H-22.71v24.1H1.44Z" transform="translate(-3381 -1171)" fill="#003580"/><path d="M40.066,220.23H11.6V238H40.066Z" transform="translate(-3381 -1171)" fill="#003580"/><path d="M137.773,207.872h-16.88L113.747,238h24.026Z" transform="translate(-3381 -1171)" fill="#003580"/><path d="M146.028,169.689h-.493v29.144h.493Z" transform="translate(-3381 -1171)" fill="#003580"/><path d="M148.492,179.526h-.616v17.217h.616Z" transform="translate(-3381 -1171)" fill="#003580"/><path d="M153.051,182.6h-8.5v8.485h8.5Z" transform="translate(-3381 -1171)" fill="#003580"/><path d="M154.345,181.924H143.071v.738h11.274Z" transform="translate(-3381 -1171)" fill="#003580"/><path d="M178.679,213.344H151.141v24.6h27.538Z" transform="translate(-3381 -1171)" fill="#003580"/><path d="M191.123,186.29h-17.68v51.649h17.68Z" transform="translate(-3381 -1171)" fill="#003580"/><path d="M270.841,195.205H242.564V238h28.277Z" transform="translate(-3381 -1171)" fill="#003580"/><path d="M265.913,222.2h-32.22v15.741h32.22Z" transform="translate(-3381 -1171)" fill="#003580"/><path d="M335.65,222.2H301.582v15.741H335.65Z" transform="translate(-3381 -1171)" fill="#003580"/><path d="M315.171,237.98h42.447V180.921H315.171Z" transform="translate(-3381 -1171)" fill="#003580"/><path d="M314.087,180.974h46.019v-2.213H314.087Z" transform="translate(-3381 -1171)" fill="#003580"/><path d="M337.105,184.377h18.667V172.818H337.105Z" transform="translate(-3381 -1171)" fill="#003580"/><path d="M327.852,179.846h3.142v-7.01h-3.142Z" transform="translate(-3381 -1171)" fill="#003580"/><path d="M321.3,179.846h3.45v-7.01H321.3Z" transform="translate(-3381 -1171)" fill="#003580"/><path d="M390.11,186.843H372.983V238H390.11Z" transform="translate(-3381 -1171)" fill="#003580"/><path d="M381.547,238H357.4V210.639l20.392,8.977Z" transform="translate(-3381 -1171)" fill="#003580"/></g></g></svg>