<svg xmlns="http://www.w3.org/2000/svg" width="13.34" height="17.5" viewBox="0 0 13.34 17.5"><path d="M1845.17,274.083h.83a1.672,1.672,0,0,1,1.67,1.667v8.333a1.672,1.672,0,0,1-1.67,1.667h-10a1.672,1.672,0,0,1-1.67-1.667V275.75a1.672,1.672,0,0,1,1.67-1.667h.83v-1.666a4.17,4.17,0,0,1,8.34,0Zm-4.17-4.166a2.5,2.5,0,0,0-2.5,2.5v1.666h5v-1.666A2.5,2.5,0,0,0,1841,269.917Zm-5,14.166V275.75h10v8.333Zm6.67-4.166a1.67,1.67,0,1,1-1.67-1.667A1.672,1.672,0,0,1,1842.67,279.917Z" transform="translate(-1834.33 -268.25)" fill="#8fcbf5" fill-rule="evenodd"/></svg>