<svg xmlns="http://www.w3.org/2000/svg" width="13.925" height="22" viewBox="0 0 13.925 22"><g transform="translate(-690 -664)"><circle cx="2" cy="2" r="2" transform="translate(690 677)" fill="#8fcbf5"/><path d="M695.7,679.672a3.186,3.186,0,0,0,.713-2.589l-.454-2.728h-5.389l-.455,2.728a3.19,3.19,0,0,0,2.505,3.651v3.977H690.9V686h4.728v-1.289h-1.719v-3.977A3.184,3.184,0,0,0,695.7,679.672Z" fill="#003580"/><path d="M703.925,675.645h-3.008v4.726h3.008Z" fill="#8fcbf5"/><path d="M701.561,664h-3.867v2.578h3.867Z" fill="#003580"/><path d="M703.924,674.355v-1.246a3.013,3.013,0,0,0-2.363-2.938v-2.3h-3.867v2.3a3.013,3.013,0,0,0-2.362,2.895h1.723l.179,1.078.455,2.727a4.475,4.475,0,0,1-2.358,4.714v1.837h1.59V686h7v-4.34h-4.3v-7.3Z" fill="#003580"/></g></svg>