<svg viewBox="0 -21 512 512" xmlns="http://www.w3.org/2000/svg"><path d="m490.152344 240.304688h-17.773438c-1.664062-27.023438-8.246094-53.105469-19.636718-77.625-1.738282-3.753907-6.191407-5.378907-9.945313-3.640626-3.753906 1.742188-5.382813 6.195313-3.640625 9.949219 10.464844 22.535157 16.570312 46.492188 18.210938 71.316407h-343.070313c-4.136719 0-7.488281 3.351562-7.488281 7.488281s3.351562 7.488281 7.488281 7.488281h375.855469c3.789062 0 6.867187 3.082031 6.867187 6.871094v9.140625c0 3.789062-3.078125 6.871093-6.867187 6.871093h-468.304688c-3.789062 0-6.867187-3.082031-6.867187-6.871093v-9.140625c0-3.789063 3.078125-6.871094 6.867187-6.871094h57.539063c4.136719 0 7.492187-3.351562 7.492187-7.488281s-3.355468-7.488281-7.492187-7.488281h-24.753907c3.300782-49.753907 24.636719-96.039063 60.597657-131.046876 34.65625-33.734374 79.4375-53.59375 127.296875-56.742187.027344 0 .054687.003906.082031 0 2.039063-.132813 4.054687-.234375 6.046875-.308594.398438-.011719.792969-.03125 1.191406-.042969.710938-.023437 1.417969-.039062 2.117188-.054687 1.34375-.023437 2.6875-.046875 4.035156-.046875 1.789062 0 3.578125.035156 5.363281.082031.527344.015625 1.050781.03125 1.582031.046875 1.375.046875 2.746094.117188 4.117188.191406.726562.039063 1.453125.078126 2.183594.125 61.488281 4.039063 118.058594 36.015626 153.261718 87.289063 2.339844 3.40625 7.003907 4.277344 10.414063 1.933594 3.410156-2.339844 4.277344-7.003907 1.933594-10.414063-34.640625-50.457031-88.558594-83.503906-148.152344-92.027344 3.734375-5.796874 5.832031-12.621093 5.832031-19.769531 0-4.070312-1.816406-11.574219-13.980468-16.050781-6.074219-2.234375-14.085938-3.46875-22.554688-3.46875-8.472656 0-16.484375 1.234375-22.558594 3.46875-12.164062 4.476562-13.976562 11.980469-13.976562 16.050781 0 7.128907 2.089844 13.941407 5.800781 19.726563-45.246094 6.402344-87.210937 26.886718-120.484375 59.277344-38.871094 37.839843-61.835938 87.949218-65.160156 141.777343h-17.773438c-12.046875.003907-21.847656 9.804688-21.847656 21.851563v9.140625c0 12.050781 9.800781 21.851562 21.847656 21.851562h80.683594c-4.027344 2.757813-7.886719 5.851563-11.5 9.285157l-.148438.140624c-.230468.214844-.449218.445313-.648437.691407l-35.558594 43.179687c-4.460937-2.832031-9.742187-3.863281-14.953125-2.863281-5.433594 1.039063-10.132812 4.132813-13.234375 8.710937l-13.984375 20.621094c-6.394531 9.433594-3.925781 22.320313 5.5 28.722656l95.691406 65.007813c3.46875 2.355469 7.476563 3.582031 11.582032 3.582031 1.304687 0 2.621094-.125 3.933594-.375 5.429687-1.039062 10.128906-4.132812 13.230468-8.710937l13.984375-20.621094c6.394531-9.433594 3.929688-22.320313-5.496093-28.722656l-.546876-.371094c6.660157-7.558594 15.539063-12.976563 25.199219-15.210937 20.355469-4.714844 44.308594-1.679688 60.554688 1.011718 20.097656 3.328125 41.207031 2.191406 61.046875-3.289062l27.578125-7.621094c18.371093-5.078125 35.277343-13.628906 50.253906-25.417969.113281-.089843.222656-.179687.332031-.277343l47.347656-41.933594c8.070313-6.175782 9.828126-16.871094 7.042969-25.539063h60.414063c12.046875 0 21.847656-9.800781 21.847656-21.847656v-9.144531c0-12.046875-9.800781-21.847656-21.847656-21.847656zm-234.152344-225.324219c12.613281 0 20.171875 3.121093 21.554688 4.855469-.101563 7.105468-3.695313 13.660156-9.542969 17.589843-1.472657-.078125-2.925781-.140625-4.375-.195312-.488281-.015625-.976563-.039063-1.464844-.050781-2.089844-.0625-4.152344-.09375-6.171875-.09375-1.433594 0-2.894531.019531-4.367188.050781-.710937.011719-1.425781.03125-2.140624.054687-.851563.027344-1.710938.054688-2.570313.089844-.980469.042969-1.960937.085938-2.9375.140625-5.847656-3.929687-9.4375-10.484375-9.539063-17.585937 1.382813-1.734376 8.941407-4.855469 21.554688-4.855469zm53.710938 281.777343c-.558594-1.265624-1.226563-2.46875-1.980469-3.613281h71.839843l-31.0625 20.558594-44.277343 12.808594-1.503907.035156c8.523438-7.105469 11.632813-19.238281 6.984376-29.789063zm-81.21875-3.613281-10.808594 2.253907-8.355469-2.253907zm-84.464844 138.964844-13.980469 20.621094c-.855469 1.265625-2.152344 2.117187-3.652344 2.40625-1.496093.285156-3.019531-.027344-4.28125-.886719l-95.691406-65.007812c-2.601563-1.765626-3.28125-5.320313-1.515625-7.921876l13.984375-20.625c.855469-1.261718 2.148437-2.117187 3.648437-2.402343.363282-.070313.726563-.105469 1.085938-.105469 1.132812 0 2.238281.339844 3.195312.992188l5.167969 3.507812c0 .003906.003907.003906.003907.003906l90.519531 61.492188c2.601562 1.765625 3.28125 5.324218 1.515625 7.925781zm269.476562-125.253906c-.179687.128906-.351562.269531-.519531.417969l-47.398437 41.984374c-13.363282 10.480469-28.441407 18.089844-44.8125 22.613282l-27.578126 7.621094c-17.757812 4.910156-36.640624 5.929687-54.605468 2.953124-17.507813-2.898437-43.429688-6.144531-66.386719-.828124-13.296875 3.078124-25.4375 10.71875-34.269531 21.34375l-70.792969-48.089844 34.359375-41.726563c12.996094-12.269531 29.476562-19.554687 45.257812-20h.304688c4.894531-.082031 10.074219 1.359375 15.554688 2.894531 1.101562.304688 2.199218.613282 3.300781.910157l49.59375 13.378906c1.136719.304687 2.328125.339844 3.480469.097656l64.953124-13.542969c2.945313-.609374 6.039063-.011718 8.488282 1.648438 1.582031 1.074219 2.816406 2.550781 3.570312 4.265625 2.226563 5.050781.128906 10.980469-4.847656 13.542969l-22.160156 11.734375c-3.066406 1.625-4.613282 5.140625-3.742188 8.5.875 3.363281 3.933594 5.652343 7.410156 5.605469l32.871094-.710938c.652344-.015625 1.296875-.113281 1.917969-.292969l46.316406-13.398437c.730469-.210938 1.421875-.53125 2.054688-.949219l46.726562-30.929687c3.921875-2.421876 9.140625-4.414063 11.917969-.316407 2.164062 3.1875 2.214844 8.925781-.964844 11.273438zm0 0"/></svg>