<svg xmlns="http://www.w3.org/2000/svg" width="21.82" height="20" viewBox="0 0 21.82 20"><path d="M2782.91,769.278a6.536,6.536,0,0,1,4.91-2.278,5.939,5.939,0,0,1,6,5.995c0,4.116-3.7,7.471-9.32,12.554l-.01.012L2782.91,787l-1.58-1.428-.05-.039c-5.59-5.079-9.28-8.429-9.28-12.538a5.939,5.939,0,0,1,6-5.995A6.536,6.536,0,0,1,2782.91,769.278Zm0,14.779.11-.109c5.19-4.7,8.62-7.8,8.62-10.953a3.729,3.729,0,0,0-3.82-3.815,4.25,4.25,0,0,0-3.89,2.572h-2.04a4.25,4.25,0,0,0-3.89-2.572,3.73,3.73,0,0,0-3.82,3.815c0,3.149,3.43,6.256,8.62,10.953Z" transform="translate(-2772 -767)" fill="#91a2ba" fill-rule="evenodd"/></svg>