<svg xmlns="http://www.w3.org/2000/svg" width="20" height="17.778" viewBox="0 0 20 17.778"><path d="M2791.69,195.122a1.664,1.664,0,0,0-1.58-1.122h-12.22a1.674,1.674,0,0,0-1.58,1.122l-2.31,6.656v8.889a1.114,1.114,0,0,0,1.11,1.111h1.11a1.114,1.114,0,0,0,1.11-1.111v-1.111h13.34v1.111a1.114,1.114,0,0,0,1.11,1.111h1.11a1.114,1.114,0,0,0,1.11-1.111v-8.889Zm-13.41,1.1h11.43l1.2,3.456h-13.83Zm-2.06,11.111h15.56v-5.555h-15.56Zm2.78-4.444a1.666,1.666,0,1,0,1.67,1.667A1.67,1.67,0,0,0,2779,202.889Zm8.33,1.667a1.67,1.67,0,1,1,1.67,1.666A1.67,1.67,0,0,1,2787.33,204.556Z" transform="translate(-2774 -194)" fill="#fff" fill-rule="evenodd"/></svg>