<svg xmlns="http://www.w3.org/2000/svg" width="16.499" height="16.493" viewBox="0 0 16.499 16.493"><g transform="translate(-2681.5 -111.5)"><path d="M2693.63,121.868l3.52,3.547a1.222,1.222,0,0,1-1.74,1.716l-3.49-3.524-.11.083a6.47,6.47,0,0,1-3.46,1.04,6.067,6.067,0,0,1-4.49-1.879,6.174,6.174,0,0,1-1.86-4.506,6.345,6.345,0,0,1,12.69,0,6.25,6.25,0,0,1-1,3.417Zm-2.46-6.357a4,4,0,1,0,0,5.668,3.946,3.946,0,0,0,0-5.668Z" fill="#003580" fill-rule="evenodd"/><path d="M2693.63,121.868l-.43-.248a.5.5,0,0,0,.08.6Zm-1.71,1.739.36-.352a.508.508,0,0,0-.65-.055Zm-.11.083.26.424.03-.017Zm-7.95-.839.35-.351Zm9.83-1.089-.42-.267c0,.006-.01.012-.01.019Zm1.72,5.369.36-.351Zm1.74-1.716-.36.352Zm-5.98-9.9-.36.353Zm0,5.668-.36-.353Zm2.11,1.041,3.51,3.547.71-.7-3.51-3.547Zm2.49,4.56-3.49-3.525-.71.7,3.49,3.524Zm-4.14-3.58-.11.082.58.815.11-.082Zm-.09.066a5.954,5.954,0,0,1-3.19.964v1a6.928,6.928,0,0,0,3.72-1.116Zm-3.19.964a5.612,5.612,0,0,1-4.14-1.73l-.71.7a6.6,6.6,0,0,0,4.85,2.027Zm-4.14-1.73a5.7,5.7,0,0,1-1.71-4.155h-1a6.68,6.68,0,0,0,2,4.858Zm-1.71-4.155a5.634,5.634,0,0,1,1.71-4.134l-.71-.707a6.619,6.619,0,0,0-2,4.841Zm1.71-4.134a5.632,5.632,0,0,1,4.14-1.711v-1a6.632,6.632,0,0,0-4.85,2Zm4.14-1.711a5.626,5.626,0,0,1,4.13,1.711l.71-.707a6.625,6.625,0,0,0-4.84-2Zm4.13,1.711a5.633,5.633,0,0,1,1.71,4.134h1a6.619,6.619,0,0,0-2-4.841Zm1.71,4.134a5.838,5.838,0,0,1-.92,3.15l.85.533a6.82,6.82,0,0,0,1.07-3.683Zm-.93,3.169-.06.106.87.5.06-.106Zm3.53,5.268a.72.72,0,0,1-1.02,0l-.71.7a1.722,1.722,0,0,0,2.44.006Zm0-1.015a.718.718,0,0,1,0,1.015l.71.707a1.725,1.725,0,0,0,0-2.426Zm-5.27-10.608a4.31,4.31,0,0,0-3.17-1.314v1a3.305,3.305,0,0,1,2.46,1.019Zm-3.17-1.314a4.333,4.333,0,0,0-3.18,1.314l.71.705a3.328,3.328,0,0,1,2.47-1.019Zm-3.18,1.314a4.353,4.353,0,0,0-1.3,3.186h1a3.359,3.359,0,0,1,1.01-2.481Zm-1.3,3.186a4.353,4.353,0,0,0,1.3,3.186l.71-.705a3.359,3.359,0,0,1-1.01-2.481Zm1.3,3.186a4.333,4.333,0,0,0,3.18,1.314v-1a3.328,3.328,0,0,1-2.47-1.019Zm3.18,1.314a4.31,4.31,0,0,0,3.17-1.314l-.71-.705a3.305,3.305,0,0,1-2.46,1.019Zm3.17-1.314a4.379,4.379,0,0,0,1.35-3.186h-1a3.39,3.39,0,0,1-1.06,2.481Zm1.35-3.186a4.379,4.379,0,0,0-1.35-3.186l-.71.705a3.39,3.39,0,0,1,1.06,2.481Z" fill="#fff"/></g></svg>