<svg xmlns="http://www.w3.org/2000/svg" width="17.994" height="17.998" viewBox="0 0 17.994 17.998">
  <path id="Path_94" data-name="Path 94" d="M56.112,627a10.086,10.086,0,0,0-7.14,2.95l-.01.01a10.122,10.122,0,0,0,0,14.31l14.3-14.31A10.085,10.085,0,0,0,56.112,627Zm7.881,16.569L62.565,645l-6.442-6.442,1.428-1.428Zm-16-6.449a8.063,8.063,0,0,0,1.14,4.15l1.39-1.38a11.285,11.285,0,0,1-2.07-5.44A7.97,7.97,0,0,0,47.993,637.12Zm3.98,1.31a9.1,9.1,0,0,1-1.38-6.83,8.592,8.592,0,0,1,1.75-.18,9.206,9.206,0,0,1,5.08,1.56Zm4.14-9.43a7.969,7.969,0,0,0-2.67.46,11.249,11.249,0,0,1,5.43,2.07l1.39-1.39A8.063,8.063,0,0,0,56.112,629Z" transform="translate(-46 -627)" fill="#8fcbf5" fill-rule="evenodd"/>
</svg>
